<svg version="1.0" xmlns="http://www.w3.org/2000/svg" fill="inherit" width="682.667" height="682.667" viewBox="0 0 512 512"><path d="M240.2 150.1c-21.4 2.8-40.7 11.8-57.9 27.1-7.7 6.8-10.4 9.6-17.5 18.8-4.3 5.5-3.6 4.9 4.6-3.6 18.1-19.2 38.4-31.1 61.1-36 12-2.5 33.4-2.3 44.8.4 9.1 2.3 23.7 7.8 23.7 9.1 0 1.4-7.5 13-13.6 21.3-6 8.1-27.3 33-29.3 34.2-.8.5-11.8-1.5-17.1-3.1-2.2-.7 6.8-5.1 17-8.4 4.7-1.5 7.5-2.8 6.4-2.8-5-.2-13.5 2.2-21.4 6-6.7 3.3-9.5 4.1-13 3.9-7.6-.3-7.8-1.2-1.3-6.3 7.4-5.9 17.9-11.2 27.4-13.6 5.9-1.6 6.7-2 3.9-2-9.8-.2-24.1 5.8-35.1 14.7l-7.7 6.2-23.8-3.1c-13.2-1.6-29-4-35.3-5.3l-11.5-2.3 13.5 13.1c7.4 7.2 17.8 16.6 23 20.8l9.6 7.7.6 11.8c.4 8.5 1.1 13.6 2.7 18.1 3.1 8.9 4.5 6.5 2-3.3-1.2-4.8-2-11.1-2-16.2V249l7.8 5.3c4.2 2.9 8.2 5.6 8.9 6 1.2.8 4.6-2 4.1-3.3-.2-.5-8.8-6.8-19.3-14-19.8-13.8-39.5-28.7-39.5-30 0-.5 2.7-.2 6 .6 6.6 1.5 15.3 5.6 33.6 16 6.5 3.7 17.2 9.6 23.7 13.2 6.4 3.5 11.7 7 11.7 7.7 0 1.6-16.7 20.2-35.9 40-8.6 8.8-18.1 18.6-21.1 21.8l-5.5 5.8 5-2c2.8-1 14.7-6.1 26.5-11.1s22-9.2 22.5-9.2c.6-.1 4.9 2.1 9.6 4.7l8.7 4.7.7 21.7c.4 11.9.5 25.8.1 31-.3 5.2-.2 9.1.3 8.5.4-.5 6.1-8.6 12.6-17.9 14.8-21.3 31-43 38.8-51.8 3.2-3.7 5.6-6.7 5.2-6.7-2.7 0-11.1 8.2-21.1 20.6-16.3 20.1-17.1 20.9-12.3 12.9 6.5-10.8 13.8-21.7 17.3-25.3 5.9-6.4 20.6-12.5 51.1-21.3l16.9-4.8 8.4 3.4c9.7 3.9 12.2 5.8 12.2 9.2 0 9.1-9.8 32.2-18.5 43.8-8.8 11.7-21.8 23.6-33.5 30.7-4.7 2.9-3 1.3 6-5.4 9.2-6.9 23-21 29.3-30 4.3-6 11.7-20.4 11.7-22.5 0-.4-2 2.9-4.4 7.5-5.8 11-13.8 21.3-24.9 31.8-23.9 22.8-40.1 30.7-71.7 34.9-5.8.8-13.4 1.5-17 1.5-8.5.1-5.9 1.5 4 2.3 17.1 1.4 39.6-3.1 56.5-11.2 16.8-8 29.1-17.4 42.4-32.3 14-15.7 20.3-27.5 25.6-48.2 2.8-10.4 2.8-10.9 1-12.2-2.5-1.9-37.9-13.3-71.7-23.1-1-.3-1.8-.9-1.8-1.3s6.7-7.1 14.8-14.7l14.8-14-18-.6c-13.7-.5-19.1-1-22.4-2.3-3.2-1.3-4.1-2.1-3.7-3.3.4-.9 2.9-9 5.7-18.1 2.7-9.1 6.3-20.6 7.8-25.5l2.8-9-6.8-3.2c-19.2-9.1-39.7-12.7-58.8-10.2m41.4 63.9-5.2 17.4-12.5 9.1c-6.9 4.9-18.9 13.9-26.5 19.9-20.8 16.4-21.9 17.2-20.9 15.6 1.5-2.5 22.4-26.7 35.5-41 6.8-7.4 17.2-19.3 23.3-26.3 6-7 11.1-12.6 11.3-12.5.1.2-2.1 8.2-5 17.8m-78.6 7.6c15.1 3.4 31.7 7.1 36.7 8l9.3 1.6-1.8 2.2c-.9 1.2-3.4 4.2-5.6 6.8l-3.8 4.6-11.2-5c-6.1-2.7-21.4-9.5-34.1-15-12.6-5.5-23.2-10.3-23.5-10.5-.7-.7 2.3-.1 34 7.3m83 3.3c-2.9 4.2-3.4 3.9-.8-.4 1.1-2 2.3-3.4 2.5-3.1.3.3-.5 1.9-1.7 3.5m32 4.6c0 .9-4.5 6.3-10.1 12.2-5.5 5.8-9.8 10.7-9.6 10.9s2.1 1 4.3 1.8c5.2 1.9 2.8 1.8-8-.3l-8.8-1.7 12.1-9.9c6.6-5.4 11.9-10 11.7-10.3-1.1-1-10.1 4.4-19.5 11.7-5.7 4.4-11.2 8.1-12.3 8.1-3.1 0-1.7 3.3 1.7 4.2 1.7.4 11.6 2.4 22 4.3 10.5 2 20.6 4 22.5 4.4 2.2.6-7.3.9-25.3 1l-28.7.1-17.8 9.5c-18 9.6-38.1 19-38.9 18.1-.2-.2 5.3-3.7 12.4-7.7 16.1-9.1 20.6-11.9 20-12.5-.5-.6-17.7 7.8-27.7 13.6-10.2 5.8-24.6 13.4-23.5 12.3 3.8-3.6 28.5-19.9 50.5-33.3 21.7-13.2 31.3-19.7 43.4-29.6 9.6-7.9 9.3-7.8 23.9-8.2 4.5-.2 5.7.1 5.7 1.3m19.9 40.9c-.2.3-5.8 2.2-12.4 4.4-16.3 5.4-30.9 11.3-43.5 17.5-10.4 5.2-10.5 5.3-17 14.2-12.2 17-12.1 17-2-.1 3.7-6.3 8.6-15.8 11-21.3 2.3-5.5 4.9-10.2 5.8-10.6 1.5-.5 29.7-2.8 47.7-3.8 3.3-.2 7.1-.4 8.4-.5s2.2 0 2 .2M270 287.2c-.1 1.6-2.3 5.8-13.5 24.9l-9 15.4-.7-12.8c-.3-7.1-.9-13.4-1.1-14.2-.3-.7-2.8-2.5-5.6-4.1-2.8-1.5-5.1-3-5.1-3.4 0-.9 14.5-4.5 23-5.9 8.3-1.3 12-1.3 12 .1"/></svg>