<?xml version="1.0" standalone="no"?>
<!DOCTYPE svg PUBLIC "-//W3C//DTD SVG 20010904//EN"
 "http://www.w3.org/TR/2001/REC-SVG-20010904/DTD/svg10.dtd">
<svg version="1.0" xmlns="http://www.w3.org/2000/svg"
 width="512.000000pt" height="512.000000pt" viewBox="0 0 512.000000 512.000000"
 preserveAspectRatio="xMidYMid meet">
<metadata>
Created by potrace 1.16, written by Peter Selinger 2001-2019
</metadata>
<g transform="translate(0.000000,512.000000) scale(0.100000,-0.100000)"
fill="white" stroke="none">
<path d="M2498 3983 c6 -2 18 -2 25 0 6 3 1 5 -13 5 -14 0 -19 -2 -12 -5z"/>
<path d="M2330 3965 c-78 -16 -219 -60 -240 -76 -18 -13 -19 -13 80 20 36 11
113 32 170 45 110 26 102 34 -10 11z"/>
<path d="M1673 3826 c-90 -46 -193 -106 -230 -132 -151 -107 -299 -287 -398
-484 -23 -47 -70 -134 -104 -195 -34 -60 -61 -114 -61 -120 0 -5 15 17 33 50
37 68 148 248 231 375 91 139 192 246 320 339 76 54 52 27 -38 -43 -88 -69
-157 -142 -248 -266 -53 -71 -125 -190 -115 -190 2 0 24 28 47 63 159 229 345
413 529 523 44 27 78 50 77 52 -5 5 -81 -34 -143 -74 -29 -19 -53 -32 -53 -30
0 9 161 117 246 165 133 77 89 61 -93 -33z"/>
<path d="M2045 3870 c-3 -6 1 -7 9 -4 18 7 21 14 7 14 -6 0 -13 -4 -16 -10z"/>
<path d="M2396 3824 c-114 -21 -276 -77 -385 -134 -100 -53 -252 -152 -273
-178 -7 -8 20 8 61 38 151 109 370 203 581 247 116 24 342 24 465 -1 117 -23
259 -69 364 -117 46 -22 86 -38 88 -36 1 2 -37 24 -85 50 -109 57 -267 110
-391 131 -116 20 -317 19 -425 0z"/>
<path d="M3510 3806 c0 -2 8 -10 18 -17 15 -13 16 -12 3 4 -13 16 -21 21 -21
13z"/>
<path d="M3460 3786 c0 -2 8 -10 18 -17 15 -13 16 -12 3 4 -13 16 -21 21 -21
13z"/>
<path d="M2822 3755 c190 -53 381 -136 509 -221 237 -157 480 -506 569 -820
28 -95 32 -125 32 -234 1 -222 -45 -410 -152 -625 -38 -77 -99 -178 -134 -225
-237 -315 -623 -530 -1016 -565 -46 -5 -94 -16 -125 -31 -27 -13 -79 -30 -115
-39 -64 -14 -64 -15 105 -10 332 9 596 90 865 266 119 78 274 232 356 354 58
85 139 233 132 240 -2 2 -25 -38 -51 -89 -69 -137 -204 -292 -362 -415 -11 -9
34 40 100 109 132 138 190 218 265 367 82 163 128 333 150 553 35 337 -112
704 -404 1008 -191 199 -369 303 -621 366 -140 34 -214 43 -103 11z"/>
<path d="M3565 3760 c10 -11 20 -20 23 -20 3 0 -3 9 -13 20 -10 11 -20 20 -23
20 -3 0 3 -9 13 -20z"/>
<path d="M3610 3650 c332 -333 522 -779 521 -1225 0 -220 -32 -349 -144 -580
-64 -130 -140 -257 -224 -370 -40 -54 -41 -56 -8 -20 176 191 306 396 364 574
81 249 74 586 -19 872 -96 295 -323 633 -550 819 -31 26 -5 -4 60 -70z"/>
<path d="M3620 3715 c13 -14 26 -25 28 -25 3 0 -5 11 -18 25 -13 14 -26 25
-28 25 -3 0 5 -11 18 -25z"/>
<path d="M3690 3655 c19 -19 36 -35 39 -35 3 0 -10 16 -29 35 -19 19 -36 35
-39 35 -3 0 10 -16 29 -35z"/>
<path d="M2402 3619 c-214 -28 -407 -118 -579 -271 -77 -68 -104 -96 -175
-188 -43 -55 -36 -49 46 36 181 192 384 311 611 360 120 25 334 23 448 -4 91
-23 237 -78 237 -91 0 -14 -75 -130 -136 -213 -60 -81 -273 -330 -293 -342 -8
-5 -118 15 -171 31 -22 7 68 51 170 84 47 15 75 28 64 28 -50 2 -135 -22 -214
-60 -67 -33 -95 -41 -130 -39 -76 3 -78 12 -13 63 74 59 179 112 274 136 59
16 67 20 39 20 -98 2 -241 -58 -351 -147 l-77 -62 -238 31 c-132 16 -290 40
-353 53 l-115 23 135 -131 c74 -72 178 -166 230 -208 l96 -77 6 -118 c4 -85
11 -136 27 -181 31 -89 45 -65 20 33 -12 48 -20 111 -20 162 l0 83 78 -53 c42
-29 82 -56 89 -60 12 -8 46 20 41 33 -2 5 -88 68 -193 140 -198 138 -395 287
-395 300 0 5 27 2 60 -6 66 -15 153 -56 336 -160 65 -37 172 -96 237 -132 64
-35 117 -70 117 -77 0 -16 -167 -202 -359 -400 -86 -88 -181 -186 -211 -218
l-55 -58 50 20 c28 10 147 61 265 111 118 50 220 92 225 92 6 1 49 -21 96 -47
l87 -47 7 -217 c4 -119 5 -258 1 -310 -3 -52 -2 -91 3 -85 4 5 61 86 126 179
148 213 310 430 388 518 32 37 56 67 52 67 -27 0 -111 -82 -211 -206 -163
-201 -171 -209 -123 -129 65 108 138 217 173 253 59 64 206 125 511 213 l169
48 84 -34 c97 -39 122 -58 122 -92 0 -91 -98 -322 -185 -438 -88 -117 -218
-236 -335 -307 -47 -29 -30 -13 60 54 92 69 230 210 293 300 43 60 117 204
117 225 0 4 -20 -29 -44 -75 -58 -110 -138 -213 -249 -318 -239 -228 -401
-307 -717 -349 -58 -8 -134 -15 -170 -15 -85 -1 -59 -15 40 -23 171 -14 396
31 565 112 168 80 291 174 424 323 140 157 203 275 256 482 28 104 28 109 10
122 -25 19 -379 133 -717 231 -10 3 -18 9 -18 13 0 4 67 71 148 147 l148 140
-180 6 c-137 5 -191 10 -224 23 -32 13 -41 21 -37 33 4 9 29 90 57 181 27 91
63 206 78 255 l28 90 -68 32 c-192 91 -397 127 -588 102z m414 -639 l-52 -174
-125 -91 c-69 -49 -189 -139 -265 -199 -208 -164 -219 -172 -209 -156 15 25
224 267 355 410 68 74 172 193 233 263 60 70 111 126 113 125 1 -2 -21 -82
-50 -178z m-786 -76 c151 -34 317 -71 367 -80 l93 -16 -18 -22 c-9 -12 -34
-42 -56 -68 l-38 -46 -112 50 c-61 27 -214 95 -341 150 -126 55 -232 103 -235
105 -7 7 23 1 340 -73z m830 -33 c-29 -42 -34 -39 -8 4 11 20 23 34 25 31 3
-3 -5 -19 -17 -35z m320 -46 c0 -9 -45 -63 -101 -122 -55 -58 -98 -107 -96
-109 2 -2 21 -10 43 -18 52 -19 28 -18 -80 3 l-88 17 121 99 c66 54 119 100
117 103 -11 10 -101 -44 -195 -117 -57 -44 -112 -81 -123 -81 -31 0 -17 -33
17 -42 17 -4 116 -24 220 -43 105 -20 206 -40 225 -44 22 -6 -73 -9 -253 -10
l-287 -1 -178 -95 c-180 -96 -381 -190 -389 -181 -2 2 53 37 124 77 161 91
206 119 200 125 -5 6 -177 -78 -277 -136 -102 -58 -246 -134 -235 -123 38 36
285 199 505 333 217 132 313 197 434 296 96 79 93 78 239 82 45 2 57 -1 57
-13z m199 -409 c-2 -3 -58 -22 -124 -44 -163 -54 -309 -113 -435 -175 -104
-52 -105 -53 -170 -142 -122 -170 -121 -170 -20 1 37 63 86 158 110 213 23 55
49 102 58 106 15 5 297 28 477 38 33 2 71 4 84 5 13 1 22 0 20 -2z m-679 -168
c-1 -16 -23 -58 -135 -249 l-90 -154 -7 128 c-3 71 -9 134 -11 142 -3 7 -28
25 -56 41 -28 15 -51 30 -51 34 0 9 145 45 230 59 83 13 120 13 120 -1z"/>
<path d="M3230 3517 c0 -2 24 -23 53 -45 74 -57 263 -244 329 -328 104 -131
209 -312 258 -446 34 -92 11 6 -27 117 -61 176 -158 329 -306 483 -50 50 -113
107 -141 126 -65 42 -166 99 -166 93z"/>
<path d="M1684 3468 l-29 -33 33 29 c30 28 37 36 29 36 -2 0 -16 -15 -33 -32z"/>
<path d="M1533 3378 c-48 -49 -99 -135 -193 -328 -34 -69 -72 -184 -106 -320
-20 -80 -27 -140 -31 -255 -6 -181 8 -276 67 -450 22 -66 47 -146 55 -178 8
-32 22 -71 30 -87 38 -74 176 -238 297 -355 73 -70 133 -132 133 -138 0 -12
168 -98 268 -137 89 -34 224 -70 259 -69 12 0 -20 13 -72 28 -184 54 -249 86
-400 200 -207 155 -340 298 -447 481 -62 106 -94 188 -132 332 -70 265 -61
500 30 786 58 181 106 268 221 405 94 112 109 174 21 85z"/>
<path d="M3311 3265 c85 -91 172 -225 224 -347 20 -46 33 -69 30 -53 -9 42
-74 179 -117 246 -45 69 -109 143 -168 195 -27 23 -15 7 31 -41z"/>
<path d="M1342 3182 c-91 -102 -127 -161 -161 -264 -90 -272 -111 -521 -65
-746 9 -43 18 -79 20 -81 13 -14 13 19 -1 123 -26 199 -16 368 31 555 16 65
36 113 63 155 22 34 51 87 65 118 13 32 45 90 71 129 25 39 44 73 42 75 -2 3
-32 -26 -65 -64z"/>
<path d="M1497 2883 c-65 -148 -92 -297 -84 -473 10 -234 80 -400 265 -631 71
-89 242 -267 212 -222 -11 18 -25 35 -31 38 -5 4 -7 11 -3 16 3 5 2 8 -3 7
-14 -4 -168 162 -226 245 -108 151 -177 395 -177 627 0 98 23 243 55 354 14
49 24 90 22 93 -2 2 -16 -23 -30 -54z"/>
<path d="M3571 2820 c0 -8 4 -24 9 -35 5 -13 9 -14 9 -5 0 8 -4 24 -9 35 -5
13 -9 14 -9 5z"/>
<path d="M3750 2805 c0 -5 5 -17 10 -25 5 -8 10 -10 10 -5 0 6 -5 17 -10 25
-5 8 -10 11 -10 5z"/>
<path d="M3592 2740 c0 -14 2 -19 5 -12 2 6 2 18 0 25 -3 6 -5 1 -5 -13z"/>
<path d="M3601 2684 c0 -11 3 -14 6 -6 3 7 2 16 -1 19 -3 4 -6 -2 -5 -13z"/>
<path d="M3801 2664 c0 -11 3 -14 6 -6 3 7 2 16 -1 19 -3 4 -6 -2 -5 -13z"/>
<path d="M3821 2584 c0 -11 3 -14 6 -6 3 7 2 16 -1 19 -3 4 -6 -2 -5 -13z"/>
<path d="M3832 2540 c0 -14 2 -19 5 -12 2 6 2 18 0 25 -3 6 -5 1 -5 -13z"/>
<path d="M3662 2250 c0 -14 2 -19 5 -12 2 6 2 18 0 25 -3 6 -5 1 -5 -13z"/>
<path d="M942 2235 c0 -16 2 -22 5 -12 2 9 2 23 0 30 -3 6 -5 -1 -5 -18z"/>
<path d="M3638 2161 c-9 -31 -20 -66 -23 -76 -4 -13 -1 -11 9 5 15 26 41 118
34 125 -2 2 -11 -22 -20 -54z"/>
<path d="M956 2156 c33 -276 255 -658 509 -877 28 -24 5 4 -50 61 -230 241
-359 465 -436 754 -17 66 -27 91 -23 62z"/>
<path d="M3069 2083 c-13 -16 -12 -17 4 -4 16 13 21 21 13 21 -2 0 -10 -8 -17
-17z"/>
<path d="M3039 2044 c-21 -25 -127 -104 -183 -136 -28 -17 -42 -27 -31 -23 40
12 128 71 183 122 32 29 54 52 51 53 -4 0 -13 -7 -20 -16z"/>
<path d="M2090 2000 c56 -49 137 -93 213 -115 64 -19 87 -15 35 5 -60 24 -191
91 -234 121 -60 41 -67 35 -14 -11z"/>
<path d="M1441 1905 c28 -55 76 -135 107 -178 116 -162 329 -334 511 -413 138
-60 345 -104 485 -104 68 0 49 14 -49 35 -110 24 -320 97 -414 144 -149 75
-289 178 -435 321 l-139 135 54 -79 c66 -95 164 -197 264 -272 82 -62 103 -85
29 -32 -157 112 -270 234 -380 411 -88 142 -92 146 -33 32z"/>
<path d="M3856 1885 c-9 -26 -7 -32 5 -12 6 10 9 21 6 23 -2 3 -7 -2 -11 -11z"/>
<path d="M1301 1788 c33 -85 174 -308 195 -308 3 0 -7 17 -23 38 -46 59 -119
181 -153 255 -36 80 -48 89 -19 15z"/>
<path d="M1461 1563 c47 -70 188 -211 262 -262 69 -47 68 -33 -2 17 -57 42
-204 187 -270 267 -25 30 -23 25 10 -22z"/>
<path d="M3350 1567 c-19 -17 -60 -54 -90 -81 l-55 -48 60 46 c55 41 135 116
124 116 -2 0 -20 -15 -39 -33z"/>
<path d="M1900 1586 c0 -3 9 -10 20 -16 11 -6 20 -8 20 -6 0 3 -9 10 -20 16
-11 6 -20 8 -20 6z"/>
<path d="M1950 1556 c0 -3 9 -10 20 -16 11 -6 20 -8 20 -6 0 3 -9 10 -20 16
-11 6 -20 8 -20 6z"/>
<path d="M2130 1460 c8 -5 20 -10 25 -10 6 0 3 5 -5 10 -8 5 -19 10 -25 10 -5
0 -3 -5 5 -10z"/>
</g>
</svg>